<svg xmlns="http://www.w3.org/2000/svg" viewBox="0 0 800 240" fill="none" className="w-full h-auto">
  <g fill="#B81D24">
    <!-- F -->
    <path d="M 60 120 C 45 100 40 70 70 55 C 95 40 145 45 155 65 C 160 75 150 90 135 90 C 120 90 115 80 100 80 C 90 80 85 88 85 98 C 85 105 105 105 125 105 C 140 105 145 120 130 130 C 115 140 85 130 85 145 C 85 165 80 185 65 190 C 52 194 48 175 55 155 C 60 140 68 130 60 120 Z" />
    
    <!-- R -->
    <path d="M 150 70 C 165 48 215 50 230 75 C 242 95 225 120 200 122 C 220 135 235 165 220 185 C 205 200 185 185 180 165 C 175 145 170 130 160 130 C 150 130 152 160 145 180 C 140 195 125 190 130 170 C 135 150 140 100 150 70 Z M 175 80 L 172 105 C 185 105 198 100 195 90 C 192 80 180 80 175 80 Z" />

    <!-- A -->
    <path d="M 245 165 C 240 140 260 70 285 55 C 310 40 335 70 335 110 C 335 145 340 170 345 185 C 350 200 330 200 320 185 C 315 175 312 155 310 140 L 275 140 C 265 160 260 180 250 185 C 240 190 235 175 245 165 Z M 285 85 L 278 120 L 308 120 C 302 98 295 82 285 85 Z" />

    <!-- N -->
    <path d="M 350 75 C 355 60 375 60 380 75 C 385 95 385 130 385 170 C 385 190 365 190 365 170 C 365 150 375 115 375 95 L 420 170 C 430 188 450 180 450 160 L 450 80 C 450 60 470 60 465 80 L 465 150 C 465 170 440 175 430 160 L 385 85 C 375 65 355 65 350 75 Z" />

    <!-- P -->
    <path d="M 480 65 C 495 45 550 48 565 70 C 580 92 560 125 530 125 L 510 125 L 505 175 C 502 195 480 192 485 170 C 490 145 495 95 480 65 Z M 515 75 L 512 105 L 532 105 C 545 105 550 90 542 78 C 535 70 522 72 515 75 Z" />

    <!-- E -->
    <path d="M 575 120 C 570 85 585 55 620 55 C 645 55 655 70 645 85 C 635 95 615 80 605 80 C 598 80 595 95 595 105 C 595 112 610 112 625 112 C 640 112 640 128 625 128 C 610 128 595 128 595 140 C 595 152 605 165 620 165 C 635 165 648 150 655 165 C 660 178 640 190 615 190 C 580 190 570 155 575 120 Z" />

    <!-- R -->
    <path d="M 660 70 C 675 48 725 50 740 75 C 752 95 735 120 710 122 C 730 135 745 165 730 185 C 715 200 695 185 690 165 C 685 145 680 130 670 130 C 660 130 662 160 655 180 C 650 195 635 190 640 170 C 645 150 650 100 660 70 Z M 685 80 L 682 105 C 695 105 708 100 705 90 C 702 80 690 80 685 80 Z" />

    <!-- E -->
    <path d="M 740 120 C 735 85 750 55 785 55 C 810 55 820 70 810 85 C 800 95 780 80 770 80 C 763 80 760 95 760 105 C 760 112 775 112 790 112 C 805 112 805 128 790 128 C 775 128 760 128 760 140 C 760 152 770 165 785 165 C 800 165 813 150 820 165 C 825 178 805 190 780 190 C 745 190 735 155 740 120 Z" />

    <!-- Z -->
    <path d="M 830 65 C 830 55 845 55 885 55 C 900 55 905 70 890 80 L 850 140 C 870 140 895 135 900 155 C 905 175 885 185 840 185 C 825 185 820 170 835 160 L 870 105 L 840 105 C 830 105 830 75 830 65 Z" />

    <!-- Decorative liquid splatter dots -->
    <circle cx="45" cy="125" r="5" />
    <circle cx="304" cy="42" r="4" />
    <circle cx="475" cy="50" r="6" />
    <circle cx="860" cy="115" r="5" />
    <circle cx="872" cy="128" r="3.5" />
  </g>
</svg>
